<svg xmlns="http://www.w3.org/2000/svg" viewBox="0 0 300 250">
  <defs>
    <style>
      .blue { fill: #0038A8; }
      .red { fill: #CE1126; }
      .yellow { fill: #FCD116; }
      .white { fill: #FFFFFF; }
      .font-p { font-family: sans-serif; font-weight: bold; font-size: 72px; }
      .font-text { font-family: sans-serif; font-weight: bold; font-size: 36px; }
    </style>
  </defs>

  <g transform="translate(90, 20)">
    <path class="blue" d="M60,0 L120,20 L120,90 C120,130 60,160 60,160 C60,160 0,130 0,90 L0,20 L60,0 Z"/>
    
    <path class="red" d="M60,160 C60,160 0,130 0,90 L0,120 C0,150 60,180 60,180 C60,180 120,150 120,120 L120,90 C120,130 60,160 60,160 Z"/>
    
    <path class="white" d="M10,30 L110,30 L110,90 C110,120 60,150 60,150 C60,150 10,120 10,90 L10,30 Z"/>
    
    <g transform="translate(60, 35)">
      <circle class="yellow" cx="0" cy="0" r="8"/>
      <g class="yellow">
        <rect x="-1" y="-15" width="2" height="6" transform="rotate(0)"/>
        <rect x="-1" y="-15" width="2" height="6" transform="rotate(45)"/>
        <rect x="-1" y="-15" width="2" height="6" transform="rotate(90)"/>
        <rect x="-1" y="-15" width="2" height="6" transform="rotate(135)"/>
        <rect x="-1" y="-15" width="2" height="6" transform="rotate(180)"/>
        <rect x="-1" y="-15" width="2" height="6" transform="rotate(225)"/>
        <rect x="-1" y="-15" width="2" height="6" transform="rotate(270)"/>
        <rect x="-1" y="-15" width="2" height="6" transform="rotate(315)"/>
      </g>
      <polygon class="yellow" points="0,-22 2,-18 6,-18 3,-15 4,-11 0,-13 -4,-11 -3,-15 -6,-18 -2,-18"/>
      <polygon class="yellow" points="-30,0 -28,4 -24,4 -27,7 -26,11 -30,9 -34,11 -33,7 -36,4 -32,4"/>
      <polygon class="yellow" points="30,0 32,4 36,4 33,7 34,11 30,9 26,11 27,7 24,4 28,4"/>
    </g>

    <text class="font-p blue" x="60" y="130" text-anchor="middle">P</text>
  </g>

  <text class="font-text" x="150" y="230" text-anchor="middle">
    <tspan class="red">PINOY</tspan><tspan class="blue">CODE</tspan>
  </text>
</svg>